<?xml version="1.0" encoding="UTF-8" standalone="no"?>
<!DOCTYPE svg PUBLIC "-//W3C//DTD SVG 1.1//EN"
 "http://www.w3.org/Graphics/SVG/1.1/DTD/svg11.dtd">
<!-- Generated by graphviz version 13.1.1 (20250719.2154)
 -->
<!-- Title: SimpleBaseFlow Pages: 1 -->
<svg width="541pt" height="244pt"
 viewBox="0.00 0.00 541.00 244.00" xmlns="http://www.w3.org/2000/svg" xmlns:xlink="http://www.w3.org/1999/xlink">
<g id="graph0" class="graph" transform="scale(1 1) rotate(0) translate(4 239.75)">
<title>SimpleBaseFlow</title>
<polygon fill="white" stroke="none" points="-4,4 -4,-239.75 536.75,-239.75 536.75,4 -4,4"/>
<text xml:space="preserve" text-anchor="middle" x="266.38" y="-216.55" font-family="Arial Bold" font-size="16.00">Simple Planet Nine Transaction Flow: One Payment Split Four Ways</text>
<!-- businesses -->
<g id="node1" class="node">
<title>businesses</title>
<polygon fill="#e8f4fd" stroke="#2196f3" points="105.5,-36 20.5,-36 20.5,0 105.5,0 105.5,-36"/>
<text xml:space="preserve" text-anchor="middle" x="63" y="-12.57" font-family="Arial" font-size="14.00">Businesses</text>
</g>
<!-- base -->
<g id="node2" class="node">
<title>base</title>
<polygon fill="#fff3e0" stroke="#ff9800" points="287,-111 233,-111 233,-75 287,-75 287,-111"/>
<text xml:space="preserve" text-anchor="middle" x="260" y="-87.58" font-family="Arial" font-size="14.00">Base</text>
</g>
<!-- businesses&#45;&gt;base -->
<g id="edge2" class="edge">
<title>businesses&#45;&gt;base</title>
<path fill="none" stroke="#00cc00" stroke-width="2" d="M105.83,-34.09C139.97,-47.22 187.79,-65.61 220.88,-78.34"/>
<polygon fill="#00cc00" stroke="#00cc00" stroke-width="2" points="219.37,-81.51 229.96,-81.83 221.88,-74.97 219.37,-81.51"/>
<text xml:space="preserve" text-anchor="middle" x="169.25" y="-77.33" font-family="Arial" font-size="14.00">Base rakes 9%</text>
</g>
<!-- base&#45;&gt;base -->
<g id="edge5" class="edge">
<title>base&#45;&gt;base</title>
<path fill="none" stroke="#00cc00" stroke-width="2" d="M243.58,-111.15C241.06,-120.54 246.53,-129 260,-129 266.52,-129 271.17,-127.01 273.95,-123.9"/>
<polygon fill="#00cc00" stroke="#00cc00" stroke-width="2" points="277.37,-124.61 275.84,-114.12 270.5,-123.28 277.37,-124.61"/>
<text xml:space="preserve" text-anchor="middle" x="260" y="-131.45" font-family="Arial" font-size="14.00">2.7% Base share</text>
</g>
<!-- creators -->
<g id="node3" class="node">
<title>creators</title>
<polygon fill="#e8f5e8" stroke="#4caf50" points="503.25,-143 435.5,-143 435.5,-107 503.25,-107 503.25,-143"/>
<text xml:space="preserve" text-anchor="middle" x="469.38" y="-119.58" font-family="Arial" font-size="14.00">Creators</text>
</g>
<!-- base&#45;&gt;creators -->
<g id="edge3" class="edge">
<title>base&#45;&gt;creators</title>
<path fill="none" stroke="#00cc00" stroke-width="2" d="M277.13,-111.32C284.76,-118.61 294.5,-126.17 305,-130 342.89,-143.81 389.07,-140.75 422.65,-135.29"/>
<polygon fill="#00cc00" stroke="#00cc00" stroke-width="2" points="423.1,-138.76 432.33,-133.55 421.87,-131.87 423.1,-138.76"/>
<text xml:space="preserve" text-anchor="middle" x="356.75" y="-142.34" font-family="Arial" font-size="14.00">2.7% Base share</text>
</g>
<!-- users -->
<g id="node4" class="node">
<title>users</title>
<polygon fill="#ffebee" stroke="#f44336" points="496.38,-53 442.38,-53 442.38,-17 496.38,-17 496.38,-53"/>
<text xml:space="preserve" text-anchor="middle" x="469.38" y="-29.57" font-family="Arial" font-size="14.00">Users</text>
</g>
<!-- base&#45;&gt;users -->
<g id="edge4" class="edge">
<title>base&#45;&gt;users</title>
<path fill="none" stroke="#00cc00" stroke-width="2" d="M287.38,-83.05C293.15,-81.02 299.25,-78.98 305,-77.25 350.35,-63.64 362.72,-64.08 408.5,-52 415.27,-50.21 422.45,-48.24 429.4,-46.29"/>
<polygon fill="#00cc00" stroke="#00cc00" stroke-width="2" points="430.33,-49.67 438.99,-43.57 428.42,-42.93 430.33,-49.67"/>
<text xml:space="preserve" text-anchor="middle" x="356.75" y="-79.7" font-family="Arial" font-size="14.00">2.7% Base share</text>
</g>
<!-- base&#45;&gt;users -->
<g id="edge7" class="edge">
<title>base&#45;&gt;users</title>
<path fill="none" stroke="#ee22ee" stroke-width="4" d="M268.58,-74.66C275.65,-60.2 287.72,-41.07 305,-32.25 342.67,-13.02 391.88,-17.12 426.41,-23.9"/>
<polygon fill="#ee22ee" stroke="#ee22ee" stroke-width="4" points="425.64,-27.32 436.15,-26.05 427.14,-20.48 425.64,-27.32"/>
<text xml:space="preserve" text-anchor="middle" x="356.75" y="-34.7" font-family="Arial" font-size="14.00">Content</text>
</g>
<!-- planetnine -->
<g id="node5" class="node">
<title>planetnine</title>
<polygon fill="#ee22ee" stroke="#220022" points="512.25,-209 426.5,-209 426.5,-173 512.25,-173 512.25,-209"/>
<text xml:space="preserve" text-anchor="middle" x="469.38" y="-185.57" font-family="Arial" font-size="14.00">Planet Nine</text>
</g>
<!-- base&#45;&gt;planetnine -->
<g id="edge6" class="edge">
<title>base&#45;&gt;planetnine</title>
<path fill="none" stroke="#00cc00" stroke-width="2" d="M268.17,-111.37C275.19,-126.84 287.41,-148.26 305,-160 336.8,-181.23 379.41,-188.79 413.15,-191.14"/>
<polygon fill="#00cc00" stroke="#00cc00" stroke-width="2" points="412.87,-194.63 423.04,-191.66 413.24,-187.64 412.87,-194.63"/>
<text xml:space="preserve" text-anchor="middle" x="356.75" y="-193" font-family="Arial" font-size="14.00">0.9% Base share</text>
</g>
<!-- creators&#45;&gt;base -->
<g id="edge8" class="edge">
<title>creators&#45;&gt;base</title>
<path fill="none" stroke="#ee22ee" stroke-width="4" d="M435.28,-116.06C426.61,-113.94 417.24,-111.83 408.5,-110.25 373.13,-103.85 332.54,-99.31 302.9,-96.49"/>
<polygon fill="#ee22ee" stroke="#ee22ee" stroke-width="4" points="303.56,-93.04 293.29,-95.62 302.93,-100.01 303.56,-93.04"/>
<text xml:space="preserve" text-anchor="middle" x="356.75" y="-112.7" font-family="Arial" font-size="14.00">Content</text>
</g>
<!-- users&#45;&gt;businesses -->
<g id="edge1" class="edge">
<title>users&#45;&gt;businesses</title>
<path fill="none" stroke="#00cc00" stroke-width="2" d="M441.97,-24.7C431.69,-21.2 419.71,-17.74 408.5,-16 307.24,-0.32 187.21,-6.52 118.9,-12.34"/>
<polygon fill="#00cc00" stroke="#00cc00" stroke-width="2" points="118.61,-8.85 108.96,-13.23 119.23,-15.83 118.61,-8.85"/>
<text xml:space="preserve" text-anchor="middle" x="260" y="-8.72" font-family="Arial" font-size="14.00">Buy stuff</text>
</g>
</g>
</svg>
